<mxfile host="app.diagrams.net" agent="Mozilla/5.0 (Windows NT 10.0; Win64; x64) AppleWebKit/537.36 (KHTML, like Gecko) Chrome/135.0.0.0 Safari/537.36" version="26.0.16">
  <diagram name="Page-1" id="TA6gXqDFzfyHmSNEqNzv">
    <mxGraphModel dx="1601" dy="453" grid="1" gridSize="10" guides="1" tooltips="1" connect="1" arrows="1" fold="1" page="1" pageScale="1" pageWidth="827" pageHeight="1169" math="0" shadow="0">
      <root>
        <mxCell id="0" />
        <mxCell id="1" parent="0" />
        <mxCell id="3lTf8zWU9LtMQArzml-N-13" value="" style="shape=datastore;whiteSpace=wrap;html=1;fillColor=none;" vertex="1" parent="1">
          <mxGeometry x="163" y="2" width="510" height="180" as="geometry" />
        </mxCell>
        <mxCell id="3lTf8zWU9LtMQArzml-N-26" style="edgeStyle=orthogonalEdgeStyle;rounded=0;orthogonalLoop=1;jettySize=auto;html=1;exitX=0.25;exitY=0;exitDx=0;exitDy=0;entryX=0.25;entryY=1;entryDx=0;entryDy=0;" edge="1" parent="1" source="3lTf8zWU9LtMQArzml-N-1" target="3lTf8zWU9LtMQArzml-N-4">
          <mxGeometry relative="1" as="geometry">
            <Array as="points">
              <mxPoint x="403" y="310" />
            </Array>
          </mxGeometry>
        </mxCell>
        <mxCell id="3lTf8zWU9LtMQArzml-N-29" style="edgeStyle=orthogonalEdgeStyle;rounded=0;orthogonalLoop=1;jettySize=auto;html=1;exitX=1;exitY=0.5;exitDx=0;exitDy=0;entryX=0.5;entryY=1;entryDx=0;entryDy=0;" edge="1" parent="1" source="3lTf8zWU9LtMQArzml-N-1" target="3lTf8zWU9LtMQArzml-N-5">
          <mxGeometry relative="1" as="geometry" />
        </mxCell>
        <mxCell id="3lTf8zWU9LtMQArzml-N-1" value="DBT Syatem" style="rounded=1;whiteSpace=wrap;html=1;" vertex="1" parent="1">
          <mxGeometry x="370" y="310" width="156" height="80" as="geometry" />
        </mxCell>
        <mxCell id="3lTf8zWU9LtMQArzml-N-3" value="" style="rounded=1;whiteSpace=wrap;html=1;" vertex="1" parent="1">
          <mxGeometry x="180" y="81" width="140" height="80" as="geometry" />
        </mxCell>
        <mxCell id="3lTf8zWU9LtMQArzml-N-4" value="INT." style="rounded=1;whiteSpace=wrap;html=1;" vertex="1" parent="1">
          <mxGeometry x="377" y="80" width="103" height="80" as="geometry" />
        </mxCell>
        <mxCell id="3lTf8zWU9LtMQArzml-N-5" value="MRT." style="rounded=1;whiteSpace=wrap;html=1;" vertex="1" parent="1">
          <mxGeometry x="560" y="82" width="100" height="78" as="geometry" />
        </mxCell>
        <mxCell id="3lTf8zWU9LtMQArzml-N-24" style="edgeStyle=orthogonalEdgeStyle;rounded=0;orthogonalLoop=1;jettySize=auto;html=1;exitX=1;exitY=0.5;exitDx=0;exitDy=0;entryX=0;entryY=0.25;entryDx=0;entryDy=0;" edge="1" parent="1" source="3lTf8zWU9LtMQArzml-N-7" target="3lTf8zWU9LtMQArzml-N-1">
          <mxGeometry relative="1" as="geometry" />
        </mxCell>
        <mxCell id="3lTf8zWU9LtMQArzml-N-7" value="EXT." style="rounded=1;whiteSpace=wrap;html=1;" vertex="1" parent="1">
          <mxGeometry x="197" y="105" width="44" height="20" as="geometry" />
        </mxCell>
        <mxCell id="3lTf8zWU9LtMQArzml-N-8" value="VISTA_PRO" style="rounded=1;whiteSpace=wrap;html=1;" vertex="1" parent="1">
          <mxGeometry x="197" y="135" width="70" height="20" as="geometry" />
        </mxCell>
        <mxCell id="3lTf8zWU9LtMQArzml-N-9" value="RAW" style="text;html=1;align=center;verticalAlign=middle;whiteSpace=wrap;rounded=0;" vertex="1" parent="1">
          <mxGeometry x="210" y="75" width="60" height="30" as="geometry" />
        </mxCell>
        <mxCell id="3lTf8zWU9LtMQArzml-N-21" style="edgeStyle=orthogonalEdgeStyle;rounded=0;orthogonalLoop=1;jettySize=auto;html=1;exitX=1;exitY=0.5;exitDx=0;exitDy=0;entryX=0;entryY=0.5;entryDx=0;entryDy=0;" edge="1" parent="1" source="3lTf8zWU9LtMQArzml-N-10" target="3lTf8zWU9LtMQArzml-N-8">
          <mxGeometry relative="1" as="geometry">
            <Array as="points">
              <mxPoint x="91" y="145" />
            </Array>
          </mxGeometry>
        </mxCell>
        <mxCell id="3lTf8zWU9LtMQArzml-N-10" value="ADF Syatem" style="rounded=1;whiteSpace=wrap;html=1;fillColor=none;strokeColor=#6c8ebf;strokeWidth=2;" vertex="1" parent="1">
          <mxGeometry x="-65" y="100" width="156" height="80" as="geometry" />
        </mxCell>
        <mxCell id="3lTf8zWU9LtMQArzml-N-20" style="edgeStyle=orthogonalEdgeStyle;rounded=0;orthogonalLoop=1;jettySize=auto;html=1;exitX=0.855;exitY=0;exitDx=0;exitDy=4.35;exitPerimeter=0;entryX=0.5;entryY=1;entryDx=0;entryDy=0;" edge="1" parent="1" source="3lTf8zWU9LtMQArzml-N-11" target="3lTf8zWU9LtMQArzml-N-10">
          <mxGeometry relative="1" as="geometry">
            <Array as="points">
              <mxPoint x="13" y="244" />
            </Array>
          </mxGeometry>
        </mxCell>
        <mxCell id="3lTf8zWU9LtMQArzml-N-11" value="VISTA&amp;nbsp;" style="shape=cylinder3;whiteSpace=wrap;html=1;boundedLbl=1;backgroundOutline=1;size=15;" vertex="1" parent="1">
          <mxGeometry x="-40" y="240" width="60" height="80" as="geometry" />
        </mxCell>
        <mxCell id="3lTf8zWU9LtMQArzml-N-15" value="" style="image;aspect=fixed;html=1;points=[];align=center;fontSize=12;image=img/lib/azure2/databases/Data_Factory.svg;" vertex="1" parent="1">
          <mxGeometry x="-66" y="58" width="68" height="68" as="geometry" />
        </mxCell>
        <mxCell id="3lTf8zWU9LtMQArzml-N-18" style="edgeStyle=orthogonalEdgeStyle;rounded=0;orthogonalLoop=1;jettySize=auto;html=1;exitX=0;exitY=0.5;exitDx=0;exitDy=0;entryX=1.013;entryY=0.163;entryDx=0;entryDy=0;entryPerimeter=0;" edge="1" parent="1" source="3lTf8zWU9LtMQArzml-N-7" target="3lTf8zWU9LtMQArzml-N-10">
          <mxGeometry relative="1" as="geometry">
            <Array as="points">
              <mxPoint x="197" y="113" />
            </Array>
          </mxGeometry>
        </mxCell>
        <mxCell id="3lTf8zWU9LtMQArzml-N-19" style="edgeStyle=orthogonalEdgeStyle;rounded=0;orthogonalLoop=1;jettySize=auto;html=1;exitX=0.25;exitY=1;exitDx=0;exitDy=0;entryX=0.145;entryY=0;entryDx=0;entryDy=4.35;entryPerimeter=0;" edge="1" parent="1" source="3lTf8zWU9LtMQArzml-N-10" target="3lTf8zWU9LtMQArzml-N-11">
          <mxGeometry relative="1" as="geometry">
            <Array as="points">
              <mxPoint x="-31" y="180" />
            </Array>
          </mxGeometry>
        </mxCell>
        <mxCell id="3lTf8zWU9LtMQArzml-N-25" style="edgeStyle=orthogonalEdgeStyle;rounded=0;orthogonalLoop=1;jettySize=auto;html=1;exitX=0.5;exitY=1;exitDx=0;exitDy=0;entryX=0;entryY=0.875;entryDx=0;entryDy=0;entryPerimeter=0;dashed=1;strokeWidth=2;" edge="1" parent="1" source="3lTf8zWU9LtMQArzml-N-8" target="3lTf8zWU9LtMQArzml-N-1">
          <mxGeometry relative="1" as="geometry" />
        </mxCell>
        <mxCell id="3lTf8zWU9LtMQArzml-N-28" style="edgeStyle=orthogonalEdgeStyle;rounded=0;orthogonalLoop=1;jettySize=auto;html=1;exitX=0.75;exitY=1;exitDx=0;exitDy=0;" edge="1" parent="1" source="3lTf8zWU9LtMQArzml-N-4">
          <mxGeometry relative="1" as="geometry">
            <mxPoint x="454" y="310" as="targetPoint" />
          </mxGeometry>
        </mxCell>
        <mxCell id="3lTf8zWU9LtMQArzml-N-32" value="&lt;b&gt;01&lt;/b&gt;" style="text;html=1;align=center;verticalAlign=middle;whiteSpace=wrap;rounded=0;" vertex="1" parent="1">
          <mxGeometry x="103" y="92" width="60" height="30" as="geometry" />
        </mxCell>
        <mxCell id="3lTf8zWU9LtMQArzml-N-33" value="&lt;b&gt;02&lt;/b&gt;" style="text;html=1;align=center;verticalAlign=middle;whiteSpace=wrap;rounded=0;" vertex="1" parent="1">
          <mxGeometry x="-52" y="200" width="60" height="30" as="geometry" />
        </mxCell>
        <mxCell id="3lTf8zWU9LtMQArzml-N-34" value="&lt;b&gt;03&lt;/b&gt;" style="text;html=1;align=center;verticalAlign=middle;whiteSpace=wrap;rounded=0;" vertex="1" parent="1">
          <mxGeometry x="-7" y="200" width="60" height="30" as="geometry" />
        </mxCell>
        <mxCell id="3lTf8zWU9LtMQArzml-N-35" value="&lt;b&gt;04&lt;/b&gt;" style="text;html=1;align=center;verticalAlign=middle;whiteSpace=wrap;rounded=0;" vertex="1" parent="1">
          <mxGeometry x="103" y="139" width="60" height="30" as="geometry" />
        </mxCell>
        <mxCell id="3lTf8zWU9LtMQArzml-N-36" value="&lt;b&gt;05&lt;/b&gt;" style="text;html=1;align=center;verticalAlign=middle;whiteSpace=wrap;rounded=0;" vertex="1" parent="1">
          <mxGeometry x="211" y="240" width="60" height="30" as="geometry" />
        </mxCell>
      </root>
    </mxGraphModel>
  </diagram>
</mxfile>
